<mxfile host="65bd71144e">
    <diagram id="RsjJzwHML_ZkzlEyLgvg" name="第 1 页">
        <mxGraphModel dx="554" dy="593" grid="1" gridSize="10" guides="1" tooltips="1" connect="1" arrows="1" fold="1" page="1" pageScale="1" pageWidth="827" pageHeight="1169" math="0" shadow="0">
            <root>
                <mxCell id="0"/>
                <mxCell id="1" parent="0"/>
                <mxCell id="2" value="SubprocessHost" style="rounded=0;whiteSpace=wrap;html=1;" parent="1" vertex="1">
                    <mxGeometry x="190" y="270" width="120" height="30" as="geometry"/>
                </mxCell>
                <mxCell id="3" value="" style="endArrow=none;dashed=1;html=1;dashPattern=1 3;strokeWidth=2;entryX=0.5;entryY=1;entryDx=0;entryDy=0;" parent="1" target="2" edge="1">
                    <mxGeometry width="50" height="50" relative="1" as="geometry">
                        <mxPoint x="250" y="570" as="sourcePoint"/>
                        <mxPoint x="430" y="680" as="targetPoint"/>
                    </mxGeometry>
                </mxCell>
                <mxCell id="4" value="Subprocess" style="rounded=0;whiteSpace=wrap;html=1;" parent="1" vertex="1">
                    <mxGeometry x="430" y="345" width="120" height="20" as="geometry"/>
                </mxCell>
                <mxCell id="5" value="" style="endArrow=none;dashed=1;html=1;dashPattern=1 3;strokeWidth=2;entryX=0.5;entryY=1;entryDx=0;entryDy=0;" parent="1" target="4" edge="1">
                    <mxGeometry width="50" height="50" relative="1" as="geometry">
                        <mxPoint x="490" y="570" as="sourcePoint"/>
                        <mxPoint x="490" y="380" as="targetPoint"/>
                    </mxGeometry>
                </mxCell>
                <mxCell id="23" value="Subprocess.Popen" style="edgeStyle=none;html=1;dashed=1;entryX=0;entryY=0.5;entryDx=0;entryDy=0;exitX=1;exitY=0.5;exitDx=0;exitDy=0;" parent="1" source="6" target="4" edge="1">
                    <mxGeometry relative="1" as="geometry">
                        <mxPoint x="440" y="370" as="targetPoint"/>
                        <mxPoint x="290" y="360" as="sourcePoint"/>
                    </mxGeometry>
                </mxCell>
                <mxCell id="6" value="attatch" style="rounded=0;whiteSpace=wrap;html=1;" parent="1" vertex="1">
                    <mxGeometry x="220" y="340" width="60" height="30" as="geometry"/>
                </mxCell>
                <mxCell id="15" value="init" style="edgeStyle=none;html=1;exitX=0;exitY=0;exitDx=0;exitDy=0;entryX=0.145;entryY=0;entryDx=0;entryDy=4.35;entryPerimeter=0;" parent="1" source="7" target="13" edge="1">
                    <mxGeometry relative="1" as="geometry"/>
                </mxCell>
                <mxCell id="16" value="event" style="edgeStyle=none;html=1;exitX=0.167;exitY=0.556;exitDx=0;exitDy=0;entryX=0.5;entryY=0;entryDx=0;entryDy=0;entryPerimeter=0;exitPerimeter=0;" parent="1" source="7" target="13" edge="1">
                    <mxGeometry relative="1" as="geometry"/>
                </mxCell>
                <mxCell id="17" value="stopped" style="edgeStyle=none;html=1;exitX=0;exitY=1;exitDx=0;exitDy=0;entryX=0.855;entryY=0;entryDx=0;entryDy=4.35;entryPerimeter=0;" parent="1" source="7" target="13" edge="1">
                    <mxGeometry relative="1" as="geometry"/>
                </mxCell>
                <mxCell id="7" value="" style="rounded=0;whiteSpace=wrap;html=1;" parent="1" vertex="1">
                    <mxGeometry x="475" y="390" width="30" height="140" as="geometry"/>
                </mxCell>
                <mxCell id="22" style="edgeStyle=none;html=1;exitX=0.5;exitY=1;exitDx=0;exitDy=0;exitPerimeter=0;entryX=1.006;entryY=0.561;entryDx=0;entryDy=0;entryPerimeter=0;" parent="1" source="13" target="20" edge="1">
                    <mxGeometry relative="1" as="geometry"/>
                </mxCell>
                <mxCell id="13" value="" style="shape=cylinder3;whiteSpace=wrap;html=1;boundedLbl=1;backgroundOutline=1;size=15;rotation=90;" parent="1" vertex="1">
                    <mxGeometry x="340" y="400" width="60" height="80" as="geometry"/>
                </mxCell>
                <mxCell id="14" value="&lt;span style=&quot;color: rgb(0, 0, 0); font-family: Helvetica; font-size: 12px; font-style: normal; font-variant-ligatures: normal; font-variant-caps: normal; font-weight: 400; letter-spacing: normal; orphans: 2; text-align: center; text-indent: 0px; text-transform: none; widows: 2; word-spacing: 0px; -webkit-text-stroke-width: 0px; background-color: rgb(255, 255, 255); text-decoration-thickness: initial; text-decoration-style: initial; text-decoration-color: initial; float: none; display: inline !important;&quot;&gt;PIPE&lt;/span&gt;" style="text;whiteSpace=wrap;html=1;" parent="1" vertex="1">
                    <mxGeometry x="340" y="430" width="60" height="40" as="geometry"/>
                </mxCell>
                <mxCell id="18" value="event" style="edgeStyle=none;html=1;entryX=0.679;entryY=0.006;entryDx=0;entryDy=0;entryPerimeter=0;exitX=0.002;exitY=0.665;exitDx=0;exitDy=0;exitPerimeter=0;" parent="1" source="7" target="13" edge="1">
                    <mxGeometry relative="1" as="geometry">
                        <mxPoint x="470" y="450" as="sourcePoint"/>
                        <mxPoint x="420" y="450" as="targetPoint"/>
                    </mxGeometry>
                </mxCell>
                <mxCell id="19" value="event" style="edgeStyle=none;html=1;entryX=0.679;entryY=0.006;entryDx=0;entryDy=0;entryPerimeter=0;exitX=0.002;exitY=0.665;exitDx=0;exitDy=0;exitPerimeter=0;" parent="1" edge="1">
                    <mxGeometry relative="1" as="geometry">
                        <mxPoint x="475.00000000000006" y="430" as="sourcePoint"/>
                        <mxPoint x="409.46" y="430.8899999999999" as="targetPoint"/>
                    </mxGeometry>
                </mxCell>
                <mxCell id="28" value="event" style="edgeStyle=none;rounded=0;html=1;exitX=1.029;exitY=0.302;exitDx=0;exitDy=0;entryX=0.145;entryY=1;entryDx=0;entryDy=-4.35;entryPerimeter=0;exitPerimeter=0;" parent="1" source="20" target="13" edge="1">
                    <mxGeometry relative="1" as="geometry"/>
                </mxCell>
                <mxCell id="20" value="Pool" style="rounded=0;whiteSpace=wrap;html=1;" parent="1" vertex="1">
                    <mxGeometry x="220" y="395" width="60" height="80" as="geometry"/>
                </mxCell>
                <mxCell id="21" style="edgeStyle=none;html=1;exitX=0;exitY=0.25;exitDx=0;exitDy=0;entryX=0;entryY=0.75;entryDx=0;entryDy=0;rounded=0;" parent="1" source="20" target="20" edge="1">
                    <mxGeometry relative="1" as="geometry">
                        <Array as="points">
                            <mxPoint x="190" y="415"/>
                            <mxPoint x="190" y="455"/>
                        </Array>
                    </mxGeometry>
                </mxCell>
                <mxCell id="26" value="detach" style="rounded=0;whiteSpace=wrap;html=1;" parent="1" vertex="1">
                    <mxGeometry x="220" y="500" width="60" height="30" as="geometry"/>
                </mxCell>
                <mxCell id="29" value="event" style="edgeStyle=none;rounded=0;html=1;exitX=1.029;exitY=0.302;exitDx=0;exitDy=0;entryX=0.145;entryY=1;entryDx=0;entryDy=-4.35;entryPerimeter=0;exitPerimeter=0;" parent="1" edge="1">
                    <mxGeometry relative="1" as="geometry">
                        <mxPoint x="280" y="430.4600000000001" as="sourcePoint"/>
                        <mxPoint x="332.6100000000001" y="430.00000000000006" as="targetPoint"/>
                    </mxGeometry>
                </mxCell>
                <mxCell id="30" value="event" style="edgeStyle=none;rounded=0;html=1;exitX=1.029;exitY=0.302;exitDx=0;exitDy=0;entryX=0.145;entryY=1;entryDx=0;entryDy=-4.35;entryPerimeter=0;exitPerimeter=0;" parent="1" edge="1">
                    <mxGeometry relative="1" as="geometry">
                        <mxPoint x="280" y="450.1700000000001" as="sourcePoint"/>
                        <mxPoint x="332.6100000000001" y="449.71000000000004" as="targetPoint"/>
                    </mxGeometry>
                </mxCell>
                <mxCell id="31" value="event" style="edgeStyle=none;rounded=0;html=1;exitX=1.029;exitY=0.302;exitDx=0;exitDy=0;entryX=0.145;entryY=1;entryDx=0;entryDy=-4.35;entryPerimeter=0;exitPerimeter=0;" parent="1" edge="1">
                    <mxGeometry relative="1" as="geometry">
                        <mxPoint x="280" y="460.4600000000001" as="sourcePoint"/>
                        <mxPoint x="332.6100000000001" y="460.00000000000006" as="targetPoint"/>
                    </mxGeometry>
                </mxCell>
                <mxCell id="32" value="SIGTERM/SIGKILL" style="edgeStyle=none;rounded=0;html=1;exitX=1;exitY=0.5;exitDx=0;exitDy=0;entryX=0.75;entryY=1;entryDx=0;entryDy=0;dashed=1;" parent="1" source="26" target="4" edge="1">
                    <mxGeometry x="-0.52" relative="1" as="geometry">
                        <Array as="points">
                            <mxPoint x="520" y="515"/>
                        </Array>
                        <mxPoint as="offset"/>
                    </mxGeometry>
                </mxCell>
                <mxCell id="34" value="init" style="edgeStyle=none;html=1;exitX=1;exitY=1;exitDx=0;exitDy=0;entryX=0;entryY=1;entryDx=0;entryDy=-15;entryPerimeter=0;" edge="1" parent="1" source="6" target="13">
                    <mxGeometry relative="1" as="geometry">
                        <mxPoint x="485" y="400" as="sourcePoint"/>
                        <mxPoint x="415.65" y="428.70000000000005" as="targetPoint"/>
                    </mxGeometry>
                </mxCell>
                <mxCell id="35" value="stop" style="edgeStyle=none;html=1;exitX=1;exitY=0;exitDx=0;exitDy=0;entryX=0;entryY=1;entryDx=0;entryDy=0;" edge="1" parent="1" source="26" target="14">
                    <mxGeometry relative="1" as="geometry">
                        <mxPoint x="485" y="540" as="sourcePoint"/>
                        <mxPoint x="415.65" y="471.29999999999995" as="targetPoint"/>
                    </mxGeometry>
                </mxCell>
            </root>
        </mxGraphModel>
    </diagram>
</mxfile>
